<svg width="410" height="98" viewBox="0 0 410 98" fill="none" xmlns="http://www.w3.org/2000/svg">
<g style="mix-blend-mode:hard-light">
<path d="M50.1909 5.83691H1.30378L45.6281 51.189L0.00012207 97.8369H50.1909L72.3531 72.5693L95.1671 97.8369H144.054L99.078 51.189L138.84 12.3158L188.379 61.5552V97.8369H227.488V61.5552L282.894 8.42846V97.8369H321.351V49.2454L365.024 97.8369H410V5.83691H371.542V55.0764L328.522 5.83691H234.658L207.933 34.9918L182.512 5.83691H95.1671L72.3531 31.7524L50.1909 5.83691Z" fill="#196EFF"/>
</g>
<path d="M48.8442 0H1.26868L44.4038 44.3662L0 90H48.8442L70.4118 65.2817L92.6137 90H140.189L96.4197 44.3662L135.114 6.33803L183.324 54.507V90H221.385V54.507L275.304 2.53521V90H312.73V42.4648L355.231 90H399V0H361.574V48.169L319.707 0H228.362L202.355 28.5211L177.615 0H92.6137L70.4118 25.3521L48.8442 0Z" fill="white"/>
</svg>
